<svg xmlns="http://www.w3.org/2000/svg" width="15.684" height="15.684" viewBox="0 0 15.684 15.684">
  <g id="Group_111" data-name="Group 111" transform="translate(-1.434 -1.44)">
    <path id="Path_23" data-name="Path 23" d="M9.279,2.44a6.839,6.839,0,1,0,4.836,2A6.839,6.839,0,0,0,9.279,2.44Z" transform="translate(0 0)" fill="none" stroke="#000" stroke-miterlimit="10" stroke-width="2"/>
    <path id="Path_24" data-name="Path 24" d="M17.14,13.716a1.9,1.9,0,0,1,.76-1.266,2.26,2.26,0,0,1,1.416-.455,2.507,2.507,0,0,1,1.031.173,1.787,1.787,0,0,1,1.145,1.6c0,1.01-.661,1.469-1.413,1.974a1.837,1.837,0,0,0-.957,1.619" transform="translate(-10.037 -6.524)" fill="none" stroke="#000" stroke-linecap="round" stroke-miterlimit="10" stroke-width="2"/>
    <path id="Path_25" data-name="Path 25" d="M21.592,34.374a.777.777,0,1,0-.777-.777A.777.777,0,0,0,21.592,34.374Z" transform="translate(-12.546 -20.743)"/>
  </g>
</svg>
