<svg version="1.1" id="Cool-logo" xmlns="http://www.w3.org/2000/svg" xmlns:xlink="http://www.w3.org/1999/xlink" x="0px" y="0px" viewBox="0 0 430.9 186.2" style="enable-background:new 0 0 430.9 186.2;" xml:space="preserve">
<style type="text/css">
	.st0 {
		fill: #B295C6;
	}

	.st1 {
		fill: #46166B;
	}
</style>
<g>
<g>
<g>
<path class="st0" d="M165.3,19c-6.1-5.6-13.9-8.8-22.2-8.8c-18,0-34.1,14.4-34.1,34.2c0,20.1,16.5,34.2,34.1,34.2
				c9.5,0,17-3.5,23-9.2l6.9,7.8c-7.7,7-19,11.6-29.9,11.6c-29.2,0-45.7-23.1-45.7-44.4C97.5,23.1,113.9,0,143.1,0
				c11.4,0,22.7,4.6,29.6,11L165.3,19z"></path>
<path class="st0" d="M227.1,0c29.2,0,45.7,23.1,45.7,44.4c0,21.3-16.4,44.4-45.7,44.4c-29.2,0-45.7-23.1-45.7-44.4
				C181.4,23.1,197.9,0,227.1,0z M227.1,78.6c17.6,0,34.1-13.8,34.1-34.2c0-20.4-16.5-34.2-34.1-34.2C209.5,10.2,193,24,193,44.4
				C193,64.8,209.5,78.6,227.1,78.6z"></path>
<path class="st0" d="M389.7,1.4h10.9v75.9h30.3v10.2h-41.1V1.4z"></path>
		</g>
<g>
<path class="st1" d="M353,20.1c-6.2-5.9-14.7-9.3-23.3-9.3c-8.5,0-17,3.4-23.3,9.3c-6.6,6.3-10.3,15-10.3,24.4
				c0,9.4,3.7,18.1,10.3,24.4c6.2,5.9,14.7,9.3,23.3,9.3c8.5,0,17-3.4,23.3-9.3c6.6-6.3,10.3-15,10.3-24.4
				C363.3,35,359.7,26.4,353,20.1z"></path>
<path class="st1" d="M329.8,0c-29.2,0-45.7,23.1-45.7,44.4c0,21.3,16.4,44.4,45.7,44.4c29.2,0,45.7-23.1,45.7-44.4
				C375.4,23.1,359,0,329.8,0z M353.8,69.6c-6.4,6.1-15.2,9.6-24,9.6c-8.8,0-17.6-3.5-24-9.6c-6.9-6.5-10.6-15.4-10.6-25.2
				c0-9.7,3.8-18.6,10.6-25.2c6.4-6.1,15.2-9.6,24-9.6c8.8,0,17.6,3.5,24,9.6c6.9,6.5,10.6,15.4,10.6,25.2
				C364.4,54.1,360.6,63.1,353.8,69.6z"></path>
		</g>
<g>
<g>
<path class="st0" d="M199,105.8h4l-8.1,8.1l8.3,9.4h-4.2l-7.3-8.5v8.5h-3V97.7h3v15.7L199,105.8z"></path>
<path class="st0" d="M217.5,121.3L217.5,121.3c-1,1.6-2.9,2.5-4.9,2.5c-3.4,0-6.8-1.9-6.8-6.6v-11.4h3V116
					c0,2.6,1.1,4.9,4.1,4.9c2.8,0,4.6-1.9,4.6-5.3v-9.9h3v17.6h-3V121.3z"></path>
<path class="st0" d="M236.9,113.1c0-2.6-1.1-4.9-4.1-4.9c-2.8,0-4.6,1.9-4.6,5.3v9.9h-3v-17.6h3v2.1h0.1
					c0.9-1.6,2.9-2.5,4.8-2.5c3.4,0,6.8,1.9,6.8,6.6v11.4h-3V113.1z"></path>
<path class="st0" d="M246.4,118.2c0.2,1.9,1.8,2.9,3.6,2.9c2.7,0,3.5-1.5,3.5-2.5c0-1.1-0.7-1.9-3.1-2.5l-3.1-0.8
					c-2.6-0.7-3.6-2.4-3.6-4.5c0-2.9,2.2-5.3,6.3-5.3c4.5,0,6,2.8,6,5.5h-2.8c-0.2-2-1.2-3-3.3-3c-1.9,0-3.2,1.1-3.2,2.5
					c0,1,0.5,1.7,2,2.1l4.1,1.2c2.8,0.8,3.7,2.3,3.7,4.6c0,3.6-3.1,5.5-6.4,5.5c-4.1,0-6.5-2.2-6.6-5.5H246.4z"></path>
<path class="st0" d="M260.9,101.5h3v4.3h2.8v2.7h-2.8v10.8c0,0.9,0.3,1.3,1.5,1.3h1.4v2.8c-0.4,0-1.1,0-1.9,0
					c-3.1,0-4-1.1-4-3.8v-11.1h-2.4v-2.7h2.4V101.5z"></path>
<path class="st0" d="M295.6,119.9c-2.4,2.6-4.9,3.8-7.9,3.8c-6.2,0-9.6-4.5-9.6-9.2c0-5,3.6-9.2,9.1-9.2c5.4,0,9.2,4.1,9.2,10.4
					h-15c0.5,3,2.9,5.2,6.3,5.2c2.2,0,4.1-1,5.6-2.8L295.6,119.9z M292.9,113.2c-0.3-2.9-2.7-5-5.8-5c-3.7,0-5.5,2.6-5.8,5H292.9z"></path>
<path class="st0" d="M311.8,113.1c0-2.6-1.1-4.9-4.1-4.9c-2.8,0-4.6,1.9-4.6,5.3v9.9h-3v-17.6h3v2.1h0.1
					c0.9-1.6,2.9-2.5,4.8-2.5c3.4,0,6.8,1.9,6.8,6.6v11.4h-3V113.1z"></path>
<path class="st0" d="M340.6,110c-1.2-1.2-2.6-1.8-4.1-1.8c-3,0-5.8,2.2-5.8,6.5c0,3.6,2.6,6.2,6.1,6.2c1.4,0,2.9-0.8,3.9-1.8
					l1.8,2.2c-1.6,1.6-3.8,2.4-6.1,2.4c-5.4,0-9-4.3-9-9.1c0-5,3.9-9.2,9-9.2c2.7,0,4.9,1.1,6.2,2.2L340.6,110z"></path>
<path class="st0" d="M357.4,121.3L357.4,121.3c-1,1.6-2.9,2.5-4.9,2.5c-3.4,0-6.8-1.9-6.8-6.6v-11.4h3V116
					c0,2.6,1.1,4.9,4.1,4.9c2.8,0,4.6-1.9,4.6-5.3v-9.9h3v17.6h-3V121.3z"></path>
<path class="st0" d="M368,97.7v20.1c0,2,1,2.7,2,2.7h0.9v2.8h-1.2c-2.8,0-4.7-1.6-4.7-5.3V97.7H368z"></path>
<path class="st0" d="M374,101.5h3v4.3h2.8v2.7H377v10.8c0,0.9,0.3,1.3,1.5,1.3h1.4v2.8c-0.4,0-1.1,0-1.9,0c-3.1,0-4-1.1-4-3.8
					v-11.1h-2.4v-2.7h2.4V101.5z"></path>
<path class="st0" d="M394.9,121.3L394.9,121.3c-1,1.6-2.9,2.5-4.9,2.5c-3.4,0-6.8-1.9-6.8-6.6v-11.4h3V116
					c0,2.6,1.1,4.9,4.1,4.9c2.8,0,4.6-1.9,4.6-5.3v-9.9h3v17.6h-3V121.3z"></path>
<path class="st0" d="M414.2,121.3L414.2,121.3c-1,1.6-2.9,2.5-4.9,2.5c-3.4,0-6.8-1.9-6.8-6.6v-11.4h3V116
					c0,2.6,1.1,4.9,4.1,4.9c2.8,0,4.6-1.9,4.6-5.3v-9.9h3v17.6h-3V121.3z"></path>
<path class="st0" d="M422.1,105.8h3v2.5h0.1c1.5-2.7,3-2.9,5.5-2.9v3.2c-0.4-0.1-0.9-0.2-1.4-0.2c-2.5,0-4.2,1.8-4.2,5v10h-3
					V105.8z"></path>
			</g>
		</g>
<g>
<g>
<path class="st1" d="M112.5,97.8c0,13.3-10.8,24-24,24c-13.3,0-24-10.8-24-24c0-13.2,10.8-24,24-24V61
					c-20.3,0-36.8,16.5-36.8,36.8c0,20.3,16.5,36.8,36.8,36.8c20.3,0,36.8-16.5,36.8-36.8H112.5z"></path>
			</g>
<g>
<path class="st1" d="M164.2,97.8c0,41.8-34,75.7-75.7,75.7c-41.8,0-75.7-34-75.7-75.7c0-41.7,34-75.7,75.7-75.7V9.3
					C39.7,9.3,0,49,0,97.8c0,48.8,39.7,88.4,88.4,88.4c48.8,0,88.4-39.7,88.4-88.4H164.2z"></path>
			</g>
<g>
<path class="st0" d="M138.3,97.8c0,27.5-22.4,49.9-49.9,49.9c-27.5,0-49.9-22.4-49.9-49.9c0-27.5,22.4-49.9,49.9-49.9V35.2
					c-34.5,0-62.6,28.1-62.6,62.6c0,34.5,28.1,62.6,62.6,62.6c34.5,0,62.6-28.1,62.6-62.6H138.3z"></path>
			</g>
		</g>
	</g>
</g>
</svg>